<svg xmlns="http://www.w3.org/2000/svg" width="154" height="154" viewBox="0 0 157.063 157.063">
  <metadata><?xpacket begin="﻿" id="W5M0MpCehiHzreSzNTczkc9d"?>
<x:xmpmeta xmlns:x="adobe:ns:meta/" x:xmptk="Adobe XMP Core 5.6-c142 79.160924, 2017/07/13-01:06:39        ">
   <rdf:RDF xmlns:rdf="http://www.w3.org/1999/02/22-rdf-syntax-ns#">
      <rdf:Description rdf:about=""/>
   </rdf:RDF>
</x:xmpmeta>
                                                                                                    
                                                                                                    
                                                                                                    
                                                                                                    
                                                                                                    
                                                                                                    
                                                                                                    
                                                                                                    
                                                                                                    
                                                                                                    
                                                                                                    
                                                                                                    
                                                                                                    
                                                                                                    
                                                                                                    
                                                                                                    
                                                                                                    
                                                                                                    
                                                                                                    
                                                                                                    
                           
<?xpacket end="w"?></metadata>
<defs>
    <style>
      .cls-1 {
        fill: #2ce6d7;
        fill-rule: evenodd;
      }
    </style>
  </defs>
  <path id="_" data-name="" class="cls-1" d="M920,1609a77,77,0,1,1-77,77A77,77,0,0,1,920,1609Zm0,5a72,72,0,1,1-72,72A72,72,0,0,1,920,1614Zm25.1,35.72a24.981,24.981,0,0,0-9.817,6.13l-9.133,9.08-37.959-9.02a1.667,1.667,0,0,0-1.712.45l-7.307,7.26a1.744,1.744,0,0,0-.513,1.53,1.919,1.919,0,0,0,.97,1.37l29,15.83-14.784,14.69-11.073-3.01a1.446,1.446,0,0,0-.457-0.05,1.786,1.786,0,0,0-1.313.51l-5.48,5.5a1.95,1.95,0,0,0-.513,1.42,1.7,1.7,0,0,0,.741,1.31l14.385,10.72,10.788,14.3a2.1,2.1,0,0,0,1.37.74H902.4a1.792,1.792,0,0,0,1.313-.52l5.48-5.44a1.726,1.726,0,0,0,.456-1.76l-3.025-11.01,14.784-14.69,15.925,28.82a1.6,1.6,0,0,0,1.2.91,1.22,1.22,0,0,0,.4.05,1.6,1.6,0,0,0,1.084-.34l7.306-5.44a1.725,1.725,0,0,0,.685-1.88l-9.132-39.49,9.19-9.13a24.806,24.806,0,0,0,6.164-9.76q1.827-5.445-.685-8.4Q950.579,1647.91,945.1,1649.72Z" transform="translate(-841.469 -1607.469)"/>
</svg>
