<svg xmlns="http://www.w3.org/2000/svg" viewBox="0 0 144 32">
  <metadata><?xpacket begin="﻿" id="W5M0MpCehiHzreSzNTczkc9d"?>
<x:xmpmeta xmlns:x="adobe:ns:meta/" x:xmptk="Adobe XMP Core 5.6-c142 79.160924, 2017/07/13-01:06:39        ">
   <rdf:RDF xmlns:rdf="http://www.w3.org/1999/02/22-rdf-syntax-ns#">
      <rdf:Description rdf:about=""/>
   </rdf:RDF>
</x:xmpmeta>
                                                                                                    
<!-- width="144" height="32" -->
                                                                                                    
                                                                                                    
                                                                                                    
                                                                                                    
                                                                                                    
                                                                                                    
                                                                                                    
                                                                                                    
                                                                                                    
                                                                                                    
                                                                                                    
                                                                                                    
                                                                                                    
                                                                                                    
                                                                                                    
                                                                                                    
                                                                                                    
                                                                                                    
                           
<?xpacket end="w"?></metadata>
<defs>
    <style>
      .cls-1 {
        fill: #fff;
        fill-rule: evenodd;
      }
    </style>
  </defs>
  <path id="logo_mob" data-name="logo mob" class="cls-1" d="M2337.01,165.776l3.3-.265V140.08l-3.3-.264V138.01h22.15v6.5h-2.15l-0.18-4.425h-14.1v11.549h12.34v2.09h-12.34v11.792l3.31,0.265v1.786h-9.03v-1.786Zm25.62-9.52a11.814,11.814,0,0,1,2.66-7.956,9.556,9.556,0,0,1,14.1,0,11.814,11.814,0,0,1,2.66,7.956v0.67a11.8,11.8,0,0,1-2.65,7.966,9.586,9.586,0,0,1-14.11,0,11.8,11.8,0,0,1-2.66-7.966v-0.67Zm2.44,0.67a10.434,10.434,0,0,0,1.93,6.414,6.8,6.8,0,0,0,10.69,0,10.5,10.5,0,0,0,1.93-6.414v-0.67a10.428,10.428,0,0,0-1.94-6.373,6.755,6.755,0,0,0-10.68,0,10.422,10.422,0,0,0-1.93,6.373v0.67Zm20.94-.67a11.809,11.809,0,0,1,2.65-7.956,9.567,9.567,0,0,1,14.11,0,11.809,11.809,0,0,1,2.65,7.956v0.67a11.843,11.843,0,0,1-2.64,7.966,8.8,8.8,0,0,1-7.03,3.1,8.893,8.893,0,0,1-7.09-3.1,11.8,11.8,0,0,1-2.65-7.966v-0.67Zm2.43,0.67a10.434,10.434,0,0,0,1.93,6.414,6.313,6.313,0,0,0,5.38,2.6,6.248,6.248,0,0,0,5.31-2.6,10.434,10.434,0,0,0,1.93-6.414v-0.67a10.428,10.428,0,0,0-1.94-6.373,6.755,6.755,0,0,0-10.68,0,10.422,10.422,0,0,0-1.93,6.373v0.67Zm32.34-18.916a11.672,11.672,0,0,1,7.17,1.938,6.825,6.825,0,0,1,2.57,5.835,6.323,6.323,0,0,1-1.29,3.958,6.6,6.6,0,0,1-3.5,2.334,7.11,7.11,0,0,1,4.38,2.537,7.2,7.2,0,0,1,1.69,4.729,7.473,7.473,0,0,1-2.57,6.089,10.41,10.41,0,0,1-6.87,2.132h-13.51v-1.786l3.31-.265V140.08l-3.31-.264V138.01h11.93Zm-6.21,13.253h6.8a7.723,7.723,0,0,0,4.96-1.41,5.013,5.013,0,0,0,1.76-4.151,4.958,4.958,0,0,0-1.87-4.211,8.928,8.928,0,0,0-5.44-1.411h-6.21v11.183Zm0,2.05v12.2h7.79a7.619,7.619,0,0,0,5.14-1.613,5.66,5.66,0,0,0,1.86-4.516,5.926,5.926,0,0,0-1.69-4.364,6.643,6.643,0,0,0-4.92-1.705h-8.18Zm21.63,2.943a11.814,11.814,0,0,1,2.66-7.956,9.556,9.556,0,0,1,14.1,0,11.814,11.814,0,0,1,2.66,7.956v0.67a11.8,11.8,0,0,1-2.65,7.966,9.586,9.586,0,0,1-14.11,0,11.8,11.8,0,0,1-2.66-7.966v-0.67Zm2.44,0.67a10.494,10.494,0,0,0,1.92,6.414,6.807,6.807,0,0,0,10.7,0,10.494,10.494,0,0,0,1.92-6.414v-0.67a10.422,10.422,0,0,0-1.93-6.373,6.765,6.765,0,0,0-10.69,0,10.482,10.482,0,0,0-1.92,6.373v0.67Zm20.94-.67a11.809,11.809,0,0,1,2.65-7.956,9.556,9.556,0,0,1,14.1,0,11.764,11.764,0,0,1,2.66,7.956v0.67a11.8,11.8,0,0,1-2.65,7.966,8.771,8.771,0,0,1-7.03,3.1,8.886,8.886,0,0,1-7.08-3.1,11.8,11.8,0,0,1-2.65-7.966v-0.67Zm2.43,0.67a10.434,10.434,0,0,0,1.93,6.414,6.8,6.8,0,0,0,10.69,0,10.434,10.434,0,0,0,1.93-6.414v-0.67a10.428,10.428,0,0,0-1.94-6.373,6.755,6.755,0,0,0-10.68,0,10.422,10.422,0,0,0-1.93,6.373v0.67Z" transform="translate(-2336 -137)"/>
</svg>
