<svg xmlns="http://www.w3.org/2000/svg" viewBox="0 0 163 90">
  <metadata><?xpacket begin="﻿" id="W5M0MpCehiHzreSzNTczkc9d"?>
<x:xmpmeta xmlns:x="adobe:ns:meta/" x:xmptk="Adobe XMP Core 5.6-c142 79.160924, 2017/07/13-01:06:39        ">
   <rdf:RDF xmlns:rdf="http://www.w3.org/1999/02/22-rdf-syntax-ns#">
      <rdf:Description rdf:about=""/>
   </rdf:RDF>
</x:xmpmeta>
                                                                                                    
<?xpacket end="w"?></metadata>
<defs>
    <style>
      .cls-1 {
        fill: #fff;
        fill-rule: evenodd;
      }
    </style>
  </defs>
  <path id="Kształt_2_kopia" data-name="Kształt 2 kopia" class="cls-1" d="M386.009,187.855l3.8-.3V158.386l-3.8-.3v-2.072h25.432v7.449h-2.469l-0.209-5.074H392.577V171.63h14.16v2.4h-14.16v13.524l3.8,0.3V189.9H386.009v-2.048Zm29.415-10.917a13.53,13.53,0,0,1,3.051-9.125,10.977,10.977,0,0,1,16.186,0,13.53,13.53,0,0,1,3.051,9.125v0.768a13.553,13.553,0,0,1-3.039,9.136,11.013,11.013,0,0,1-16.2,0,13.519,13.519,0,0,1-3.051-9.136v-0.768Zm2.8,0.768a12,12,0,0,0,2.212,7.356,7.811,7.811,0,0,0,12.274,0,12,12,0,0,0,2.212-7.356v-0.768a11.933,11.933,0,0,0-2.224-7.309,7.76,7.76,0,0,0-12.262,0,11.978,11.978,0,0,0-2.212,7.309v0.768Zm24.035-.768a13.53,13.53,0,0,1,3.051-9.125,10.977,10.977,0,0,1,16.186,0,13.53,13.53,0,0,1,3.051,9.125v0.768a13.553,13.553,0,0,1-3.039,9.136,11.013,11.013,0,0,1-16.2,0,13.519,13.519,0,0,1-3.051-9.136v-0.768Zm2.794,0.768a12,12,0,0,0,2.213,7.356,7.811,7.811,0,0,0,12.274,0,12,12,0,0,0,2.213-7.356v-0.768a11.933,11.933,0,0,0-2.225-7.309,7.76,7.76,0,0,0-12.262,0,11.978,11.978,0,0,0-2.213,7.309v0.768Zm37.125-21.695q5.285,0,8.232,2.223t2.947,6.693a7.254,7.254,0,0,1-1.48,4.539,7.593,7.593,0,0,1-4.017,2.677,8.175,8.175,0,0,1,5.03,2.909,8.3,8.3,0,0,1,1.934,5.424,8.558,8.558,0,0,1-2.947,6.983,11.954,11.954,0,0,1-7.883,2.444H468.478v-2.048l3.8-.3V158.386l-3.8-.3v-2.072h13.695Zm-7.127,15.2h7.8a8.882,8.882,0,0,0,5.694-1.617,5.744,5.744,0,0,0,2.014-4.761A5.666,5.666,0,0,0,488.414,160a10.233,10.233,0,0,0-6.241-1.618h-7.127v12.825Zm0,2.352v13.989h8.943a8.722,8.722,0,0,0,5.892-1.85,6.475,6.475,0,0,0,2.143-5.179,6.794,6.794,0,0,0-1.945-5,7.623,7.623,0,0,0-5.648-1.955h-9.385Zm24.827,3.375a13.53,13.53,0,0,1,3.051-9.125,10.977,10.977,0,0,1,16.186,0,13.53,13.53,0,0,1,3.051,9.125v0.768a13.553,13.553,0,0,1-3.039,9.136,11.013,11.013,0,0,1-16.2,0,13.519,13.519,0,0,1-3.051-9.136v-0.768Zm2.8,0.768a11.989,11.989,0,0,0,2.213,7.356,7.81,7.81,0,0,0,12.273,0,12,12,0,0,0,2.213-7.356v-0.768a11.939,11.939,0,0,0-2.224-7.309,7.76,7.76,0,0,0-12.262,0,11.972,11.972,0,0,0-2.213,7.309v0.768Zm24.035-.768a13.525,13.525,0,0,1,3.051-9.125,10.977,10.977,0,0,1,16.186,0,13.53,13.53,0,0,1,3.051,9.125v0.768a13.548,13.548,0,0,1-3.04,9.136,11.012,11.012,0,0,1-16.2,0,13.514,13.514,0,0,1-3.051-9.136v-0.768Zm2.794,0.768a12,12,0,0,0,2.213,7.356,7.811,7.811,0,0,0,12.274,0,12,12,0,0,0,2.213-7.356v-0.768a11.933,11.933,0,0,0-2.225-7.309,7.76,7.76,0,0,0-12.262,0,11.978,11.978,0,0,0-2.213,7.309v0.768Zm-87.54,28.512a4.947,4.947,0,0,1,3.693,1.489,5.242,5.242,0,0,1,1.457,3.825V213.1a5.226,5.226,0,0,1-1.457,3.825,4.963,4.963,0,0,1-3.693,1.481h-4.906v-0.737l1.364-.109V207.071l-1.364-.109v-0.744h4.906Zm-2.545.853v10.485h2.545a3.877,3.877,0,0,0,2.977-1.263,4.531,4.531,0,0,0,1.168-3.2v-1.59a4.483,4.483,0,0,0-1.172-3.171,3.879,3.879,0,0,0-2.973-1.264h-2.545ZM456.14,212.5h-5v5.054h5.76l0.076-1.824h0.887v2.67h-9.084v-0.737l1.364-.109V207.071l-1.364-.109v-0.744h9.042V208.9h-0.887l-0.075-1.824h-5.719v4.577h5V212.5Zm12.015-2.669h-0.82l-0.142-1.725a3,3,0,0,0-1.232-.89,4.741,4.741,0,0,0-1.825-.323,3.737,3.737,0,0,0-2.347.653,1.979,1.979,0,0,0-.842,1.623,1.9,1.9,0,0,0,.757,1.536,7.081,7.081,0,0,0,2.625,1.083,7.614,7.614,0,0,1,2.993,1.356,2.785,2.785,0,0,1,1.026,2.251,2.718,2.718,0,0,1-1.19,2.318,5.043,5.043,0,0,1-3.038.862,6.3,6.3,0,0,1-2.425-.46,4.633,4.633,0,0,1-1.829-1.314v-2.134h0.822l0.142,1.783a3.488,3.488,0,0,0,1.414.954,5.248,5.248,0,0,0,1.876.326,3.927,3.927,0,0,0,2.331-.636,1.971,1.971,0,0,0,.892-1.682,2.038,2.038,0,0,0-.745-1.628,6.873,6.873,0,0,0-2.6-1.117,8.191,8.191,0,0,1-3.03-1.305,2.6,2.6,0,0,1-1.029-2.167,2.722,2.722,0,0,1,1.171-2.277,4.9,4.9,0,0,1,3.022-.879,5.819,5.819,0,0,1,2.374.461,4.11,4.11,0,0,1,1.645,1.246v2.085Zm1.776-2.871v-0.744h3.733v0.744l-1.364.109v10.485l1.364,0.109V218.4h-3.733v-0.737l1.365-.109V207.071Zm14.861,10.1a4.188,4.188,0,0,1-1.515,1.025,6.562,6.562,0,0,1-2.7.489,4.886,4.886,0,0,1-3.868-1.715,6.572,6.572,0,0,1-1.49-4.469v-0.259a6.413,6.413,0,0,1,1.49-4.4,4.964,4.964,0,0,1,3.91-1.691,6.076,6.076,0,0,1,2.429.457,4.519,4.519,0,0,1,1.716,1.25v2.118H483.98l-0.175-1.783a3.475,3.475,0,0,0-1.282-.865,4.806,4.806,0,0,0-1.834-.323,4.01,4.01,0,0,0-3.273,1.456,5.73,5.73,0,0,0-1.2,3.766v0.276a6.019,6.019,0,0,0,1.176,3.858,3.846,3.846,0,0,0,3.177,1.481,5.948,5.948,0,0,0,2.035-.309,3.238,3.238,0,0,0,1.188-.662v-2.953l-2.344-.043v-0.811h3.341v4.109Zm13.815-10.845v0.744l-1.365.109V218.4h-1l-6.925-10.477-0.049.008v9.623l1.364,0.109V218.4H486.9v-0.737l1.365-.109V207.071l-1.365-.109v-0.744h2.37l6.924,10.459,0.05-.008v-9.6l-1.365-.109v-0.744h3.726Zm-83.97,20.307a3.358,3.358,0,0,1,1.773,1.826,3.127,3.127,0,0,1-.089,2.515l-0.388.87a2.989,2.989,0,0,1-1.845,1.726,3.482,3.482,0,0,1-2.652-.24q-1.509-.72-3-1.481l0.2-.4,0.86,0.359q1.43-2.856,2.861-5.712c-0.254-.152-0.507-0.3-0.759-0.457l0.206-.4c0.261,0.133.523,0.264,0.785,0.4Q413.609,226.034,414.637,226.525Zm-1.7-.25q-1.414,2.863-2.831,5.727,0.777,0.382,1.557.755a2.706,2.706,0,0,0,2.149.156,2.584,2.584,0,0,0,1.518-1.449q0.2-.441.4-0.883a2.657,2.657,0,0,0-1.311-3.588Q413.671,226.639,412.933,226.275Zm8.643,7.422q-1.532-.6-3.051-1.235-0.6,1.421-1.193,2.839,1.794,0.753,3.6,1.451,0.224-.51.448-1.019l0.552,0.211q-0.288.761-.577,1.52-2.87-1.087-5.7-2.317l0.178-.411c0.291,0.1.583,0.2,0.874,0.3q1.254-2.938,2.506-5.877c-0.26-.134-0.52-0.27-0.779-0.406,0.06-.139.12-0.278,0.181-0.416q0.4,0.174.8,0.345,2.259,0.963,4.547,1.831-0.291.764-.58,1.525c-0.178-.068-0.357-0.135-0.535-0.2q0.177-.526.355-1.055-1.709-.659-3.4-1.369-0.54,1.287-1.08,2.571,1.512,0.636,3.038,1.23Zm7.922,1.084c-0.168-.054-0.336-0.109-0.5-0.162l0.237-1.028a1.928,1.928,0,0,0-.577-0.761,3.2,3.2,0,0,0-1.04-.559,2.531,2.531,0,0,0-1.548-.12,1.2,1.2,0,0,0-.844.749,1.129,1.129,0,0,0,.146,1.046,4.619,4.619,0,0,0,1.4,1.187,5.389,5.389,0,0,1,1.6,1.4,1.659,1.659,0,0,1,.224,1.512,1.606,1.606,0,0,1-1.188,1.1,3.563,3.563,0,0,1-2.106-.151,4.482,4.482,0,0,1-1.449-.8,3.026,3.026,0,0,1-.882-1.171q0.224-.611.448-1.22l0.511,0.187q-0.141.525-.281,1.052a2.312,2.312,0,0,0,.7.867,3.718,3.718,0,0,0,1.124.6,2.772,2.772,0,0,0,1.605.131,1.167,1.167,0,0,0,.883-0.789,1.21,1.21,0,0,0-.16-1.1,4.863,4.863,0,0,0-1.4-1.188,5.345,5.345,0,0,1-1.606-1.409,1.539,1.539,0,0,1-.175-1.47,1.65,1.65,0,0,1,1.182-1.045,3.307,3.307,0,0,1,1.993.133,3.965,3.965,0,0,1,1.34.747,2.669,2.669,0,0,1,.763,1.046C429.756,233.974,429.627,234.378,429.5,234.781Zm1.611-1.327c0.044-.144.089-0.288,0.134-0.432q1.131,0.35,2.266.678c-0.041.144-.084,0.29-0.125,0.435q-0.426-.089-0.851-0.18-0.909,3.061-1.817,6.124c0.285,0.108.57,0.214,0.857,0.32-0.042.144-.083,0.288-0.125,0.432q-1.2-.348-2.4-0.72l0.132-.428c0.3,0.069.6,0.137,0.895,0.2q0.923-3.057,1.848-6.114Q431.514,233.615,431.109,233.454Zm7.74,8.444a2.73,2.73,0,0,1-1.125.38,4.633,4.633,0,0,1-1.83-.138,3.335,3.335,0,0,1-2.236-1.665,3.747,3.747,0,0,1-.222-2.885c0.015-.051.029-0.1,0.043-0.152a3.845,3.845,0,0,1,1.64-2.329,3.289,3.289,0,0,1,2.66-.37,4.083,4.083,0,0,1,1.424.634,2.925,2.925,0,0,1,.887.988q-0.144.629-.287,1.258l-0.488-.113q0.068-.541.137-1.083a2.256,2.256,0,0,0-.671-0.7,3.256,3.256,0,0,0-1.082-.468,2.657,2.657,0,0,0-2.24.338,3.421,3.421,0,0,0-1.347,2.011c-0.014.054-.029,0.108-0.044,0.163a3.43,3.43,0,0,0,.131,2.47,2.607,2.607,0,0,0,1.821,1.4,4.152,4.152,0,0,0,1.363.141,2.172,2.172,0,0,0,.862-0.21q0.2-.876.409-1.752-0.744-.187-1.487-0.383c0.039-.16.079-0.32,0.118-0.48q1.059,0.259,2.12.5Q439.128,240.677,438.849,241.9Zm10.015-4.811c-0.024.15-.047,0.3-0.07,0.448q-0.43-.033-0.861-0.069-0.552,3.406-1.1,6.814c-0.218-.035-0.437-0.071-0.655-0.108q-1.754-3.526-3.273-7.095H442.87q-0.585,2.871-1.172,5.743,0.438,0.124.878,0.244l-0.087.44q-1.224-.24-2.444-0.5c0.032-.146.064-0.293,0.095-0.439q0.452,0.065.9,0.124,0.654-3.126,1.309-6.252c-0.277-.08-0.554-0.162-0.831-0.244l0.1-.443c0.28,0.061.561,0.12,0.841,0.179l0.621,0.128q1.5,3.558,3.236,7.079h0.033q0.481-2.885.963-5.767c-0.279-.069-0.559-0.139-0.838-0.21,0.025-.149.051-0.3,0.077-0.446q0.732,0.128,1.466.245Q448.439,237.022,448.864,237.087Zm0.756,0.573,0.066-.449q1.161,0.172,2.325.321l-0.057.449-0.862-.046q-0.429,3.163-.857,6.329c0.3,0.063.593,0.124,0.89,0.185-0.02.148-.039,0.3-0.058,0.445q-1.234-.159-2.466-0.34l0.066-.443c0.3,0.022.605,0.042,0.907,0.063q0.444-3.164.889-6.326Zm10.55,0.642-0.027.452c-0.287,0-.575.009-0.862,0.011q-0.235,3.444-.468,6.886c-0.221-.014-0.442-0.03-0.662-0.046q-2.065-3.351-3.9-6.762l-0.032,0q-0.318,2.915-.635,5.828l0.893,0.161c-0.015.149-.03,0.3-0.046,0.446q-1.236-.126-2.471-0.275l0.054-.445c0.3,0.014.605,0.027,0.907,0.039q0.363-3.172.725-6.347-0.424-.081-0.847-0.166c0.018-.15.036-0.3,0.055-0.449,0.283,0.034.567,0.068,0.851,0.1,0.209,0.025.418,0.048,0.627,0.071q1.816,3.4,3.864,6.749l0.033,0,0.426-5.831c-0.284-.043-0.569-0.087-0.852-0.132l0.036-.452q0.738,0.06,1.478.11Zm6.823,6.832a2.728,2.728,0,0,1-1.01.615,4.549,4.549,0,0,1-1.8.263,3.292,3.292,0,0,1-2.525-1.138,3.762,3.762,0,0,1-.837-2.767l0.009-.158a3.857,3.857,0,0,1,1.086-2.63,3.248,3.248,0,0,1,2.5-.94,4.02,4.02,0,0,1,1.517.309,2.927,2.927,0,0,1,1.075.772q0,0.645-.007,1.29l-0.5,0c-0.033-.362-0.067-0.725-0.1-1.086a2.233,2.233,0,0,0-.8-0.539,3.209,3.209,0,0,0-1.151-.221,2.626,2.626,0,0,0-2.1.816,3.436,3.436,0,0,0-.87,2.257c0,0.055,0,.112-0.008.167a3.45,3.45,0,0,0,.659,2.382,2.58,2.58,0,0,0,2.067.975,4.113,4.113,0,0,0,1.353-.16,2.14,2.14,0,0,0,.79-0.392q0.011-.9.019-1.8-0.763-.019-1.525-0.05c0-.165.007-0.33,0.011-0.5q1.083,0.025,2.166.03Q467,243.882,466.993,245.134Zm9.521-4.716c-0.174.013-.348,0.025-0.523,0.036-0.053-.348-0.107-0.7-0.159-1.042a1.928,1.928,0,0,0-.811-0.493,3.148,3.148,0,0,0-1.159-.134,2.484,2.484,0,0,0-1.462.463,1.2,1.2,0,0,0-.5,1.009,1.131,1.131,0,0,0,.517.917,4.531,4.531,0,0,0,1.716.584,5.307,5.307,0,0,1,1.982.711,1.663,1.663,0,0,1,.762,1.321,1.608,1.608,0,0,1-.685,1.463,3.486,3.486,0,0,1-1.986.641,4.383,4.383,0,0,1-1.623-.209,2.98,2.98,0,0,1-1.237-.76q-0.019-.651-0.037-1.3l0.535-.017q0.065,0.541.13,1.082a2.257,2.257,0,0,0,.955.546,3.644,3.644,0,0,0,1.251.142,2.718,2.718,0,0,0,1.52-.472,1.175,1.175,0,0,0,.521-1.061,1.217,1.217,0,0,0-.551-0.958,4.786,4.786,0,0,0-1.721-.585,5.2,5.2,0,0,1-1.987-.713,1.545,1.545,0,0,1-.7-1.3,1.653,1.653,0,0,1,.7-1.409,3.226,3.226,0,0,1,1.875-.617,3.871,3.871,0,0,1,1.5.2,2.636,2.636,0,0,1,1.085.689Zm0.992-1.829c-0.012-.15-0.024-0.3-0.037-0.451q1.17-.093,2.336-0.209c0.014,0.15.03,0.3,0.044,0.451q-0.425.075-.85,0.147,0.293,3.182.587,6.361c0.3-.006.6-0.012,0.908-0.02,0.015,0.149.029,0.3,0.044,0.446q-1.237.124-2.476,0.222l-0.036-.446,0.9-.142q-0.276-3.181-.553-6.364Q477.937,238.588,477.506,238.589Zm10.431-1.741c0.024,0.149.05,0.3,0.074,0.448l-0.84.2q0.546,3.408,1.091,6.816l-0.657.1q-2.771-2.8-5.325-5.714l-0.031.009q0.345,2.911.69,5.821c0.3-.013.6-0.028,0.907-0.043,0.018,0.149.037,0.3,0.056,0.445q-1.234.154-2.471,0.286c-0.016-.149-0.032-0.3-0.047-0.446q0.447-.081.892-0.165-0.359-3.174-.718-6.347c-0.288.01-.576,0.02-0.864,0.028-0.015-.15-0.032-0.3-0.047-0.45l0.852-.094c0.209-.023.418-0.048,0.627-0.072q2.535,2.909,5.286,5.709l0.032-.011q-0.449-2.889-.9-5.778c-0.287.023-.574,0.043-0.862,0.063l-0.066-.448q0.735-.108,1.468-0.225Zm7.222,0.955-0.487.108-0.333-1.081a2.28,2.28,0,0,0-.9-0.385,2.889,2.889,0,0,0-1.161.019,2.61,2.61,0,0,0-1.849,1.283,3.524,3.524,0,0,0-.341,2.439c0.007,0.035.013,0.07,0.019,0.1a3.416,3.416,0,0,0,1.191,2.163,2.574,2.574,0,0,0,2.215.5,3.3,3.3,0,0,0,1.177-.468,2.252,2.252,0,0,0,.735-0.738q-0.075-.559-0.151-1.12c0.167-.037.334-0.073,0.5-0.111q0.144,0.636.287,1.273a2.763,2.763,0,0,1-.907,1.019,3.924,3.924,0,0,1-1.537.65,3.264,3.264,0,0,1-2.707-.557,3.77,3.77,0,0,1-1.438-2.494c-0.006-.032-0.012-0.064-0.017-0.1a3.978,3.978,0,0,1,.46-2.84,3.209,3.209,0,0,1,2.215-1.5,3.572,3.572,0,0,1,1.562,0,2.812,2.812,0,0,1,1.186.561Q495.016,237.165,495.159,237.8Zm5.987,0.058q-1.572.43-3.153,0.819,0.369,1.5.737,2.99,1.866-.459,3.72-0.975c-0.083-.361-0.166-0.723-0.25-1.083l0.567-.16q0.22,0.783.443,1.565-2.932.831-5.894,1.521l-0.1-.436c0.291-.091.581-0.182,0.871-0.275q-0.75-3.1-1.5-6.21-0.429.069-.858,0.135c-0.034-.147-0.068-0.294-0.1-0.441l0.839-.2q2.356-.567,4.695-1.229l0.444,1.57-0.547.153c-0.116-.352-0.23-0.7-0.345-1.058q-1.751.486-3.511,0.92,0.333,1.353.667,2.708,1.573-.388,3.14-0.817C501.054,237.526,501.1,237.694,501.146,237.861Zm5.926,1.528q0.688-.255,1.373-0.516-0.982-2.971-1.966-5.943-0.694.339-1.4,0.671l-0.129-.408q0.966-.542,1.92-1.1l2.211,6.566q0.7-.2,1.41-0.413c0.048,0.142.1,0.283,0.147,0.424q-1.712.6-3.434,1.145C507.163,239.674,507.118,239.531,507.072,239.389Zm7.666-4.793q0.591-.233,1.178-0.472c0.064,0.159.13,0.318,0.194,0.477q-0.591.24-1.183,0.475,0.252,0.633.5,1.265c0.293-.092.587-0.184,0.88-0.279,0.056,0.139.112,0.277,0.167,0.415q-1.168.474-2.346,0.921c-0.053-.139-0.107-0.279-0.16-0.419,0.279-.129.557-0.261,0.834-0.393q-0.247-.633-0.494-1.268-1.773.691-3.562,1.327c-0.038-.109-0.078-0.218-0.116-0.327q0.881-3.072,1.605-6.145c0.217-.084.435-0.169,0.652-0.255Q513.812,232.258,514.738,234.6Zm-3.423,1.3q1.409-.512,2.807-1.055-0.768-1.971-1.536-3.942l-0.034,0q-0.027.309-.055,0.617Q511.947,233.7,511.315,235.893Zm6.378-.4c0.445-.21.891-0.422,1.334-0.638q-1.239-2.874-2.476-5.749-0.669.4-1.343,0.795l-0.165-.4q0.924-.627,1.833-1.268,1.388,3.173,2.774,6.348,0.69-.264,1.38-0.538l0.184,0.408q-1.667.751-3.348,1.452C517.808,235.77,517.75,235.632,517.693,235.494Zm7.878-6.32a3.217,3.217,0,0,1,.4,2.278,2.652,2.652,0,0,1-3.4,1.646,3.22,3.22,0,0,1-1.545-1.721l-0.693-1.5a3.4,3.4,0,0,1-.341-2.281,2.225,2.225,0,0,1,1.279-1.472,2.26,2.26,0,0,1,1.962-.1,3.369,3.369,0,0,1,1.587,1.676Zm-1.39-1.268a2.881,2.881,0,0,0-1.205-1.361,1.6,1.6,0,0,0-1.48.043,1.58,1.58,0,0,0-.94,1.133,2.9,2.9,0,0,0,.325,1.784q0.393,0.839.784,1.676a2.766,2.766,0,0,0,1.187,1.385,1.87,1.87,0,0,0,2.52-1.22,2.8,2.8,0,0,0-.359-1.787Q524.6,228.733,524.181,227.906Zm-46-2.734H451.307v-0.836h26.875v0.836Zm-48.711-18.291,1.35,4.09,4.309,0.019-3.476,2.547,1.314,4.1-3.5-2.518-3.5,2.518,1.314-4.1-3.476-2.547,4.31-.019Zm76.686,0,1.35,4.09,4.309,0.019-3.475,2.547,1.313,4.1-3.5-2.518-3.5,2.518,1.315-4.1L500.5,210.99l4.311-.019Zm-89.365-1.246-10.066-4.55,0.689-1.524,10.066,4.551ZM407.415,219.5l-0.689-1.523,10.066-4.551,0.689,1.523Zm9.4-9.242h-17.3v-1.672h17.3v1.672Zm-6.36-4.616a1.089,1.089,0,1,1-1.088-1.089A1.087,1.087,0,0,1,410.457,205.644Zm0,7.673a1.089,1.089,0,1,1-1.088-1.088A1.087,1.087,0,0,1,410.457,213.317Zm107.449-7.682-0.69-1.523,10.066-4.551,0.689,1.524Zm9.376,13.867-10.066-4.551,0.69-1.523,10.065,4.551Zm7.9-9.242h-17.3v-1.672h17.3v1.672Zm-10.943-4.616a1.089,1.089,0,1,0,1.089-1.089A1.087,1.087,0,0,0,524.24,205.644Zm0,7.673a1.089,1.089,0,1,0,1.089-1.088A1.087,1.087,0,0,0,524.24,213.317Z" transform="translate(-386 -156)"/>
</svg>
