<svg xmlns="http://www.w3.org/2000/svg" width="154" height="154" viewBox="0 0 157.063 157.063">
  <metadata><?xpacket begin="﻿" id="W5M0MpCehiHzreSzNTczkc9d"?>
<x:xmpmeta xmlns:x="adobe:ns:meta/" x:xmptk="Adobe XMP Core 5.6-c142 79.160924, 2017/07/13-01:06:39        ">
   <rdf:RDF xmlns:rdf="http://www.w3.org/1999/02/22-rdf-syntax-ns#">
      <rdf:Description rdf:about=""/>
   </rdf:RDF>
</x:xmpmeta>
                                                                                                    
                                                                                                    
                                                                                                    
                                                                                                    
                                                                                                    
                                                                                                    
                                                                                                    
                                                                                                    
                                                                                                    
                                                                                                    
                                                                                                    
                                                                                                    
                                                                                                    
                                                                                                    
                                                                                                    
                                                                                                    
                                                                                                    
                                                                                                    
                                                                                                    
                                                                                                    
                           
<?xpacket end="w"?></metadata>
<defs>
    <style>
      .cls-1 {
        fill: #74cc3f;
        fill-rule: evenodd;
      }
    </style>
  </defs>
  <path id="_" data-name="" class="cls-1" d="M1639,1609a77,77,0,1,1-77,77A76.995,76.995,0,0,1,1639,1609Zm0,5a72,72,0,1,1-72,72A72.006,72.006,0,0,1,1639,1614Zm-27.71,66.68q-4.365-3.885-4.37-7.49v-4.44h11.84a40.709,40.709,0,0,0,3.43,17.15A23.013,23.013,0,0,1,1611.29,1680.68Zm56.4,0a23.013,23.013,0,0,1-10.9,5.22,40.863,40.863,0,0,0,3.42-17.15h11.85v4.44Q1672.06,1676.79,1667.69,1680.68Zm8.99-16.56a4.279,4.279,0,0,0-3.14-1.29h-13.33v-4.44a7.409,7.409,0,0,0-7.4-7.4h-26.64a7.426,7.426,0,0,0-7.41,7.4v4.44h-13.32a4.422,4.422,0,0,0-4.44,4.44v5.92a13.143,13.143,0,0,0,1.92,6.61,22.142,22.142,0,0,0,5.18,6.01,28.873,28.873,0,0,0,8,4.51,31.59,31.59,0,0,0,9.97,2.06,24.705,24.705,0,0,0,4.4,4.39,8.757,8.757,0,0,1,2.43,3.35,11.9,11.9,0,0,1,.67,4.14,6.393,6.393,0,0,1-1.41,4.21,5.527,5.527,0,0,1-4.51,1.71,9.743,9.743,0,0,0-6.18,2.11,6.447,6.447,0,0,0-2.71,5.29v2.96a1.416,1.416,0,0,0,.42,1.06,1.432,1.432,0,0,0,1.06.42h38.49a1.439,1.439,0,0,0,1.07-.42,1.409,1.409,0,0,0,.41-1.06v-2.96a6.437,6.437,0,0,0-2.7-5.29,9.763,9.763,0,0,0-6.18-2.11,5.527,5.527,0,0,1-4.51-1.71,6.393,6.393,0,0,1-1.41-4.21,11.672,11.672,0,0,1,.67-4.14,8.757,8.757,0,0,1,2.43-3.35,25.04,25.04,0,0,0,4.4-4.39,31.471,31.471,0,0,0,9.96-2.06,28.792,28.792,0,0,0,8.01-4.51,22.142,22.142,0,0,0,5.18-6.01,13.143,13.143,0,0,0,1.92-6.61v-5.92A4.272,4.272,0,0,0,1676.68,1664.12Z" transform="translate(-1560.469 -1607.469)"/>
</svg>
