<svg xmlns="http://www.w3.org/2000/svg" width="155" height="154" viewBox="0 0 158.163 157.143">
  <metadata><?xpacket begin="﻿" id="W5M0MpCehiHzreSzNTczkc9d"?>
<x:xmpmeta xmlns:x="adobe:ns:meta/" x:xmptk="Adobe XMP Core 5.6-c142 79.160924, 2017/07/13-01:06:39        ">
   <rdf:RDF xmlns:rdf="http://www.w3.org/1999/02/22-rdf-syntax-ns#">
      <rdf:Description rdf:about=""/>
   </rdf:RDF>
</x:xmpmeta>
                                                                                                    
                                                                                                    
                                                                                                    
                                                                                                    
                                                                                                    
                                                                                                    
                                                                                                    
                                                                                                    
                                                                                                    
                                                                                                    
                                                                                                    
                                                                                                    
                                                                                                    
                                                                                                    
                                                                                                    
                                                                                                    
                                                                                                    
                                                                                                    
                                                                                                    
                                                                                                    
                           
<?xpacket end="w"?></metadata>
<defs>
    <style>
      .cls-1 {
        fill: #f34f66;
        fill-rule: evenodd;
      }
    </style>
  </defs>
  <path id="thumbup" class="cls-1" d="M559,1609a77,77,0,1,1-77,77A77,77,0,0,1,559,1609Zm0,5a72,72,0,1,1-72,72A72,72,0,0,1,559,1614Zm-32.424,97.84a3.579,3.579,0,1,1,2.479-1.05A3.382,3.382,0,0,1,526.576,1711.84Zm65.8-30.8c-0.79,1.69-1.772,2.55-2.947,2.59a7.4,7.4,0,0,1,1.377,2.62,9.907,9.907,0,0,1,.551,3.05,8.7,8.7,0,0,1-2.919,6.56,7.66,7.66,0,0,1,.991,3.8,9.3,9.3,0,0,1-.964,4.05,6.128,6.128,0,0,1-2.616,2.9,18.869,18.869,0,0,1,.275,3.08q0,9.21-10.576,9.2H568.88q-7.217,0-18.838-4.02c-0.185-.07-0.717-0.26-1.6-0.58s-1.534-.54-1.955-0.69-1.066-.35-1.928-0.63-1.562-.48-2.094-0.61-1.138-.24-1.817-0.35a11.23,11.23,0,0,0-1.735-.17h-1.763v-35.26h1.763a4.744,4.744,0,0,0,1.955-.5,9.347,9.347,0,0,0,2.2-1.49q1.13-.99,2.121-1.95a31.833,31.833,0,0,0,2.2-2.43q1.211-1.455,1.9-2.34c0.459-.59,1.037-1.34,1.735-2.26s1.12-1.47,1.267-1.65q3.029-3.75,4.241-5.02a14.009,14.009,0,0,0,3.278-6.03q1.019-3.66,1.68-6.92a9.159,9.159,0,0,1,2.093-4.68q5.288,0,7.051,2.59t1.762,7.99q0,3.255-2.644,8.84t-2.644,8.79h19.39a7.3,7.3,0,0,1,7.051,7.06A10.824,10.824,0,0,1,592.373,1681.04Zm4.049-14.38a13.559,13.559,0,0,0-9.915-4.19h-9.695a24.189,24.189,0,0,0,2.644-10.58q0-6.45-1.928-10.25a12.108,12.108,0,0,0-5.618-5.59,18.726,18.726,0,0,0-8.318-1.79,6.985,6.985,0,0,0-4.957,2.04,13.189,13.189,0,0,0-3.416,5.95c-0.7,2.42-1.258,4.75-1.68,6.97a9.366,9.366,0,0,1-1.955,4.71q-2.7,2.925-5.894,7.05-5.565,7.215-7.546,8.54H523.051a7.059,7.059,0,0,0-7.051,7.06v35.26a7.042,7.042,0,0,0,7.051,7.05h15.864q1.211,0,7.6,2.21,6.776,2.37,11.926,3.61a44.79,44.79,0,0,0,10.438,1.24h7.106q7.767,0,12.5-4.44t4.682-12.09a15.523,15.523,0,0,0,3.3-9.81,16.741,16.741,0,0,0-.165-2.37,15.843,15.843,0,0,0,2.093-7.94,14.4,14.4,0,0,0-.5-3.8,15.933,15.933,0,0,0,2.7-8.98A13.5,13.5,0,0,0,596.422,1666.66Z" transform="translate(-479.918 -1607.429)"/>
</svg>
