<svg xmlns="http://www.w3.org/2000/svg" width="154" height="154" viewBox="0 0 157.063 157.063">
  <metadata><?xpacket begin="﻿" id="W5M0MpCehiHzreSzNTczkc9d"?>
<x:xmpmeta xmlns:x="adobe:ns:meta/" x:xmptk="Adobe XMP Core 5.6-c142 79.160924, 2017/07/13-01:06:39        ">
   <rdf:RDF xmlns:rdf="http://www.w3.org/1999/02/22-rdf-syntax-ns#">
      <rdf:Description rdf:about=""/>
   </rdf:RDF>
</x:xmpmeta>
                                                                                                    
                                                                                                    
                                                                                                    
                                                                                                    
                                                                                                    
                                                                                                    
                                                                                                    
                                                                                                    
                                                                                                    
                                                                                                    
                                                                                                    
                                                                                                    
                                                                                                    
                                                                                                    
                                                                                                    
                                                                                                    
                                                                                                    
                                                                                                    
                                                                                                    
                                                                                                    
                           
<?xpacket end="w"?></metadata>
<defs>
    <style>
      .cls-1 {
        fill: #c15fd9;
        fill-rule: evenodd;
      }
    </style>
  </defs>
  <path id="_" data-name="" class="cls-1" d="M1280,1609a77,77,0,1,1-77,77A76.995,76.995,0,0,1,1280,1609Zm0,5a72,72,0,1,1-72,72A72.006,72.006,0,0,1,1280,1614Zm-44,44.71v5.93h5.96a2.767,2.767,0,0,0,.95,2.09,3.215,3.215,0,0,0,2.26.88h71.03a3.215,3.215,0,0,0,2.26-.88,2.733,2.733,0,0,0,.95-2.09h5.96v-5.93l-44.68-17.81Zm11.92,47.48h-2.75a3.259,3.259,0,0,0-2.26.88,2.783,2.783,0,0,0-.95,2.09v2.97h77.45v-2.97a2.748,2.748,0,0,0-.95-2.09,3.259,3.259,0,0,0-2.26-.88h-2.74v-35.61h-11.92v35.61h-5.96v-35.61h-11.91v35.61h-5.96v-35.61h-11.92v35.61h-5.96v-35.61h-11.91v35.61Zm-8.71,8.91a3.215,3.215,0,0,0-2.26.88,2.747,2.747,0,0,0-.95,2.08V1724h89.37v-5.94a2.747,2.747,0,0,0-.95-2.08,3.215,3.215,0,0,0-2.26-.88h-82.95Z" transform="translate(-1201.469 -1607.469)"/>
</svg>
